<svg width="25" height="24" viewBox="0 0 25 24" fill="none" xmlns="http://www.w3.org/2000/svg">
<g clip-path="url(#clip0_4031_2320)">
<path d="M1.43268 1.79464L6.80403 1.81687C7.24555 1.81687 7.66166 2.02334 7.92848 2.37593L23.8265 19.4207C24.5444 20.3577 23.8742 21.714 22.6894 21.7109L17.1465 21.6918C16.7177 21.6918 16.3111 21.4949 16.0411 21.1582L0.314574 4.10708C-0.431888 3.17321 0.235163 1.78829 1.43268 1.79464Z" fill="#3282FF"/>
<path d="M6.07026 21.5648L6.09885 21.5934C6.42284 21.8729 6.98825 21.7458 7.25507 21.5521C7.60448 21.298 7.83318 20.7484 7.614 20.3355L7.56636 20.2688C6.77225 19.3794 5.94955 18.4868 5.15545 17.626C4.66628 17.0955 4.18028 16.5682 3.69429 16.0346L3.66252 16.006C3.51005 15.8758 3.32264 15.8123 3.12888 15.8123C2.88747 15.8123 2.63018 15.9139 2.41418 16.1077C2.02348 16.4602 1.93137 16.9685 2.19183 17.3401L6.07026 21.5711V21.5648Z" fill="#3282FF"/>
<path d="M2.71596 23.2006L2.74454 23.2292C3.06854 23.5087 3.63395 23.3816 3.90077 23.1879C4.25017 22.9338 4.47888 22.3842 4.2597 21.9713L4.21206 21.9046C3.41795 21.0152 3.45607 20.9834 2.66196 20.1195C2.17279 19.589 2.45231 19.8939 1.96949 19.3635L1.93773 19.3349C1.78526 19.2046 1.59785 19.1411 1.40409 19.1411C1.16268 19.1411 0.90539 19.2428 0.689392 19.4365C0.298691 19.7891 0.206575 20.2973 0.467042 20.669L2.71913 23.2069L2.71596 23.2006Z" fill="#3282FF"/>
<path d="M9.5167 19.8939L9.53894 19.9162C9.86611 20.2148 10.4633 20.1957 10.7809 19.9797C11.1494 19.7288 11.3527 19.1348 11.0636 18.6551L11.0255 18.6043C10.0027 17.4671 8.9513 16.3236 7.93166 15.2182C7.30273 14.5353 6.67379 13.8524 6.05121 13.1694L6.0258 13.1472C5.82569 12.9661 5.58745 12.8772 5.34922 12.8772C5.11099 12.8772 4.87593 12.9661 4.67899 13.1472C4.28512 13.503 4.23429 14.0525 4.55194 14.4813L9.51988 19.8971L9.5167 19.8939Z" fill="#3282FF"/>
<path d="M18.1248 2.02017L18.0962 1.99158C17.7722 1.71205 17.2068 1.83911 16.94 2.03287C16.5906 2.28699 16.3619 2.83651 16.5811 3.24944L16.6287 3.31615C17.4228 4.20555 18.2455 5.09813 19.0396 5.95894C19.5288 6.48941 20.0148 7.01669 20.5008 7.55033L20.5326 7.57892C20.685 7.70916 20.8724 7.77269 21.0662 7.77269C21.3076 7.77269 21.5649 7.67104 21.7809 7.47728C22.1716 7.12469 22.2637 6.61646 22.0032 6.24482L18.1248 2.01381V2.02017Z" fill="#3282FF"/>
<path d="M21.4791 0.384362L21.4505 0.355774C21.1266 0.0762482 20.5611 0.203305 20.2943 0.397068C19.9449 0.651182 19.7162 1.20071 19.9354 1.61364L19.983 1.68035C20.7771 2.56975 20.739 2.60151 21.5331 3.4655C22.0223 3.99597 21.7428 3.69103 22.2256 4.22149L22.2574 4.25008C22.4098 4.38031 22.5972 4.44384 22.791 4.44384C23.0324 4.44384 23.2897 4.3422 23.5057 4.14843C23.8964 3.79585 23.9885 3.28762 23.728 2.91598L21.476 0.378009L21.4791 0.384362Z" fill="#3282FF"/>
<path d="M14.6784 3.69099L14.6561 3.66876C14.329 3.37017 13.7318 3.38923 13.4142 3.60523C13.0457 3.85617 12.8424 4.45016 13.1315 4.9298L13.1696 4.98063C14.1924 6.11779 15.2438 7.2613 16.2634 8.3667C16.8924 9.04964 17.5213 9.73257 18.1439 10.4155L18.1693 10.4377C18.3694 10.6188 18.6076 10.7077 18.8459 10.7077C19.0841 10.7077 19.3191 10.6188 19.5161 10.4377C19.91 10.082 19.9608 9.53245 19.6431 9.10363L14.6752 3.68782L14.6784 3.69099Z" fill="#3282FF"/>
</g>
<defs>
<clipPath id="clip0_4031_2320">
<rect width="24.1187" height="23.1975" fill="white" transform="translate(6.10352e-05 0.193787)"/>
</clipPath>
</defs>
</svg>
